<mxfile host="app.diagrams.net" modified="2023-09-28T13:42:44.385Z" agent="Mozilla/5.0 (Macintosh; Intel Mac OS X 10_15_7) AppleWebKit/537.36 (KHTML, like Gecko) Chrome/116.0.0.0 Safari/537.36" etag="SQptEw2_syFQW2ZmaTF5" version="22.0.0" type="device">
  <diagram name="Страница — 1" id="3LAmRbIP-tCUfXXYl4HF">
    <mxGraphModel dx="1026" dy="575" grid="1" gridSize="10" guides="1" tooltips="1" connect="1" arrows="1" fold="1" page="1" pageScale="1" pageWidth="827" pageHeight="1169" math="0" shadow="0">
      <root>
        <mxCell id="0" />
        <mxCell id="1" parent="0" />
        <mxCell id="z4h-n6DQJYZgECxDfuF2-3" value="" style="edgeStyle=orthogonalEdgeStyle;rounded=0;orthogonalLoop=1;jettySize=auto;html=1;" edge="1" parent="1" source="z4h-n6DQJYZgECxDfuF2-1" target="z4h-n6DQJYZgECxDfuF2-2">
          <mxGeometry relative="1" as="geometry" />
        </mxCell>
        <mxCell id="z4h-n6DQJYZgECxDfuF2-1" value="public int Count()" style="strokeWidth=2;html=1;shape=mxgraph.flowchart.terminator;whiteSpace=wrap;" vertex="1" parent="1">
          <mxGeometry x="365" y="150" width="100" height="40" as="geometry" />
        </mxCell>
        <mxCell id="z4h-n6DQJYZgECxDfuF2-5" value="" style="edgeStyle=orthogonalEdgeStyle;rounded=0;orthogonalLoop=1;jettySize=auto;html=1;" edge="1" parent="1" source="z4h-n6DQJYZgECxDfuF2-2" target="z4h-n6DQJYZgECxDfuF2-4">
          <mxGeometry relative="1" as="geometry" />
        </mxCell>
        <mxCell id="z4h-n6DQJYZgECxDfuF2-2" value="&lt;div&gt;int count = 0;&lt;/div&gt;&lt;div&gt;&lt;span style=&quot;background-color: initial;&quot;&gt;Elem current = _Head;&lt;/span&gt;&lt;/div&gt;" style="whiteSpace=wrap;html=1;strokeWidth=2;" vertex="1" parent="1">
          <mxGeometry x="350" y="220" width="130" height="40" as="geometry" />
        </mxCell>
        <mxCell id="z4h-n6DQJYZgECxDfuF2-7" value="Так" style="edgeStyle=orthogonalEdgeStyle;rounded=0;orthogonalLoop=1;jettySize=auto;html=1;" edge="1" parent="1" source="z4h-n6DQJYZgECxDfuF2-4" target="z4h-n6DQJYZgECxDfuF2-6">
          <mxGeometry x="0.2" relative="1" as="geometry">
            <mxPoint as="offset" />
          </mxGeometry>
        </mxCell>
        <mxCell id="z4h-n6DQJYZgECxDfuF2-9" value="Ні" style="edgeStyle=orthogonalEdgeStyle;rounded=0;orthogonalLoop=1;jettySize=auto;html=1;" edge="1" parent="1" source="z4h-n6DQJYZgECxDfuF2-4" target="z4h-n6DQJYZgECxDfuF2-8">
          <mxGeometry x="-0.5319" relative="1" as="geometry">
            <Array as="points">
              <mxPoint x="495" y="310" />
              <mxPoint x="495" y="440" />
            </Array>
            <mxPoint as="offset" />
          </mxGeometry>
        </mxCell>
        <mxCell id="z4h-n6DQJYZgECxDfuF2-4" value="current != null" style="rhombus;whiteSpace=wrap;html=1;strokeWidth=2;" vertex="1" parent="1">
          <mxGeometry x="370" y="280" width="90" height="60" as="geometry" />
        </mxCell>
        <mxCell id="z4h-n6DQJYZgECxDfuF2-10" style="edgeStyle=orthogonalEdgeStyle;rounded=0;orthogonalLoop=1;jettySize=auto;html=1;" edge="1" parent="1" source="z4h-n6DQJYZgECxDfuF2-6" target="z4h-n6DQJYZgECxDfuF2-4">
          <mxGeometry relative="1" as="geometry">
            <Array as="points">
              <mxPoint x="340" y="390" />
              <mxPoint x="340" y="310" />
            </Array>
          </mxGeometry>
        </mxCell>
        <mxCell id="z4h-n6DQJYZgECxDfuF2-6" value="&lt;div&gt;count++;&lt;/div&gt;&lt;div&gt;&lt;span style=&quot;background-color: initial;&quot;&gt;current = current._R;&lt;/span&gt;&lt;/div&gt;" style="whiteSpace=wrap;html=1;strokeWidth=2;" vertex="1" parent="1">
          <mxGeometry x="355" y="370" width="120" height="40" as="geometry" />
        </mxCell>
        <mxCell id="z4h-n6DQJYZgECxDfuF2-8" value="return count;" style="strokeWidth=2;html=1;shape=mxgraph.flowchart.terminator;whiteSpace=wrap;" vertex="1" parent="1">
          <mxGeometry x="375" y="420" width="80" height="40" as="geometry" />
        </mxCell>
      </root>
    </mxGraphModel>
  </diagram>
</mxfile>
